<?xml version="1.0" encoding="UTF-8" standalone="no"?>
<!-- Created with Inkscape (http://www.inkscape.org/) -->

<svg
   width="210mm"
   height="297mm"
   viewBox="0 0 210 297"
   version="1.1"
   id="svg1"
   inkscape:version="1.4 (86a8ad7, 2024-10-11)"
   sodipodi:docname="vegitation.svg"
   inkscape:export-filename="vegitation.png"
   inkscape:export-xdpi="96"
   inkscape:export-ydpi="96"
   xmlns:inkscape="http://www.inkscape.org/namespaces/inkscape"
   xmlns:sodipodi="http://sodipodi.sourceforge.net/DTD/sodipodi-0.dtd"
   xmlns="http://www.w3.org/2000/svg"
   xmlns:svg="http://www.w3.org/2000/svg">
  <sodipodi:namedview
     id="namedview1"
     pagecolor="#ffffff"
     bordercolor="#000000"
     borderopacity="0.25"
     inkscape:showpageshadow="2"
     inkscape:pageopacity="0.0"
     inkscape:pagecheckerboard="0"
     inkscape:deskcolor="#d1d1d1"
     inkscape:document-units="mm"
     inkscape:zoom="1.4142136"
     inkscape:cx="319.96582"
     inkscape:cy="846.76037"
     inkscape:window-width="2560"
     inkscape:window-height="1369"
     inkscape:window-x="-8"
     inkscape:window-y="1432"
     inkscape:window-maximized="1"
     inkscape:current-layer="layer1" />
  <defs
     id="defs1" />
  <g
     inkscape:label="Layer 1"
     inkscape:groupmode="layer"
     id="layer1">
    <path
       id="rect4"
       style="fill:#ffeeaa;stroke-width:0.264583"
       d="m 159.80931,142.0093 10.85677,3.47945 -22.32844,71.62811 -9.53385,-9.56486 z"
       sodipodi:nodetypes="ccccc" />
    <path
       d="m 14.906431,39.540341 c 0,0 3.873811,8.265295 8.465337,11.731114 3.813468,2.878519 16.583098,8.274123 20.657844,14.451341 3.873848,5.872686 9.518459,12.916826 14.558157,16.619592 5.039692,3.702736 8.801122,11.361335 8.801122,11.361335 l 2.504399,-2.645082 c 0,0 -1.040935,-1.608157 -3.825816,-5.750708 C 63.282647,81.165332 59.333301,79.215507 55.576394,75.85221 51.819495,72.488919 48.990079,66.897731 44.225035,61.393047 39.533564,55.973344 27.763993,52.40132 23.105263,49.436808 19.071427,46.869947 14.906395,39.540357 14.906395,39.540357 Z"
       style="fill:#ffeeaa;stroke-width:0.264583"
       id="path2"
       sodipodi:nodetypes="csssccsssscc" />
    <path
       d="m 72.604622,13.750945 c 0,0 -0.664448,11.887096 0.09667,17.589263 0.632141,4.73591 -0.43228,15.490972 -1.963274,22.730972 -1.455505,6.883061 1.206671,14.647886 2.114206,20.835416 0.907534,6.1875 -1.89755,14.24566 -1.89755,14.24566 l 3.641779,-0.0772 c 0,0 0.412473,-1.87071 1.402511,-6.76316 0.990038,-4.89246 -0.398287,-9.07238 -0.645797,-14.10873 C 75.105656,63.166816 73.388232,58.425861 73.95566,51.1674 74.514332,44.021 75.171317,37.129848 74.006325,31.73217 72.997596,27.058507 72.604622,13.750935 72.604622,13.750935 Z"
       style="fill:#ffeeaa;stroke-width:0.264583"
       id="path2-4"
       sodipodi:nodetypes="csssccsssscc" />
    <path
       d="m 1.308335,170.05378 c 0,0 12.469383,4.14662 18.221703,4.07652 4.777557,-0.0584 16.551221,-0.44287 23.554694,1.94744 6.658086,2.27231 11.404109,1.42612 17.655944,1.26915 6.251673,-0.15732 15.223831,3.40915 15.223831,3.40915 l 0.735375,-4.18585 c 0,0 -3.491393,0.11388 -8.229378,-1.45709 -4.737969,-1.571 -7.744797,-0.88228 -12.774462,-1.24199 -5.029535,-0.35977 -7.969685,0.0991 -15.107342,-1.33686 -7.027355,-1.41369 -16.893873,-0.19923 -22.392484,0.30847 -4.760994,0.43986 -16.887866,-2.78894 -16.887866,-2.78894 z"
       style="fill:#ffeeaa;stroke-width:0.264583"
       id="path2-2"
       sodipodi:nodetypes="csssccsssscc" />
    <path
       d="m 111.98377,18.974216 c 0,0 -0.74614,11.882249 -2.17646,17.454355 -1.18788,4.627894 -4.42434,18.653291 -3.76046,26.023553 0.63119,7.006897 0.0906,11.182405 -1.54222,17.21918 -1.63296,6.036726 0.19928,14.370109 0.19928,14.370109 l -3.60707,-0.507408 c 0,0 -0.18828,-1.906365 -0.5927,-6.881576 -0.40441,-4.975219 1.46858,-8.961582 2.31002,-13.933306 0.84149,-4.971719 0.0864,-6.256326 0.38139,-13.530953 0.29077,-7.162305 3.88158,-19.13836 5.67682,-24.360354 1.55448,-4.521539 3.11163,-15.85359 3.11163,-15.85359 z"
       style="fill:#ffeeaa;stroke-width:0.264583"
       id="path2-2-4"
       sodipodi:nodetypes="csssccssssc" />
    <path
       d="m 122.44622,16.948789 c 0,0 -1.7763,11.772396 -1.55295,17.520837 0.18527,4.774321 0.39136,19.166815 -1.81166,26.231357 -2.09457,6.716239 -2.4466,10.911854 -2.12366,17.157173 0.3233,6.245338 -3.22508,14.004956 -3.22508,14.004956 l 3.63297,0.264592 c 0,0 0.58605,-1.823795 2.03053,-6.601852 1.44445,-4.77806 0.4545,-9.069738 0.68009,-14.107115 0.22606,-5.037362 1.23494,-6.133842 2.48052,-13.307109 1.22632,-7.062525 0.24149,-19.526524 -0.41221,-25.00966 -0.56611,-4.74767 0.30146,-16.15326 0.30146,-16.15326 z"
       style="fill:#ffeeaa;stroke-width:0.264583"
       id="path2-2-4-3"
       sodipodi:nodetypes="csssccssssc" />
    <path
       d="m 153.85724,19.64015 c 0,0 0.66445,11.887095 -0.0967,17.589262 -0.63214,4.73591 -2.18696,19.045657 -0.65597,26.285657 1.45551,6.88306 1.41257,11.0932 0.50504,17.28073 -0.90754,6.1875 1.89755,14.24567 1.89755,14.24567 l -3.64178,-0.0772 c 0,0 -0.41247,-1.87071 -1.40251,-6.76317 -0.99004,-4.89246 0.39829,-9.07238 0.6458,-14.10873 0.24751,-5.03635 -0.65431,-6.22262 -1.22174,-13.48108 -0.55867,-7.1464 1.59067,-19.463124 2.75567,-24.860802 1.00873,-4.673663 1.21461,-16.110347 1.21461,-16.110347 z"
       style="fill:#ffeeaa;stroke-width:0.264583"
       id="path2-2-4-3-1"
       sodipodi:nodetypes="csssccssssc" />
    <path
       d="m 6.2507702,106.917 c 0,0 9.6446388,6.98036 14.8544368,9.42004 4.326966,2.02627 11.783625,8.63476 17.049423,13.83409 5.00618,4.943 13.997995,6.994 19.695317,9.57267 5.697289,2.57862 10.963393,9.29213 10.963393,9.29213 l 1.902283,-3.10641 c 0,0 -1.351457,-1.35772 -4.933942,-4.83365 -3.582466,-3.47598 -7.849992,-4.56553 -12.222019,-7.07779 C 49.187631,131.50583 43.250897,130.2932 37.449073,125.89479 31.736817,121.56426 25.6362,116.53271 20.464489,114.59737 15.986482,112.92165 6.2507362,106.91702 6.2507362,106.91702 Z"
       style="fill:#ffeeaa;stroke-width:0.264583"
       id="path2-6"
       sodipodi:nodetypes="csssccsssscc" />
    <path
       id="rect2"
       style="fill:#ffeeaa;stroke-width:0.264583"
       d="m 114.30342,194.82196 h 18.35569 l 4.23333,94.7424 -22.58902,-0.26458 z"
       sodipodi:nodetypes="ccccc" />
    <path
       id="rect3"
       style="fill:#ffeeaa;stroke-width:0.264583"
       d="m 79.432662,163.27968 10.27669,-2.72558 17.956838,58.6274 -11.070438,8.81099 z"
       sodipodi:nodetypes="ccccc" />
    <path
       id="rect3-8-1"
       style="fill:#ffeeaa;stroke-width:0.264583"
       d="m 120.9577,91.631111 5.0762,-2.15883 -6.74061,60.194949 -7.58494,-3.86905 z"
       sodipodi:nodetypes="ccccc" />
    <path
       id="rect3-8-1-2"
       style="fill:#ffeeaa;stroke-width:0.264583"
       d="m 66.811189,97.11537 5.0762,-2.15883 34.798971,55.69704 -3.08703,7.77261 z"
       sodipodi:nodetypes="ccccc" />
    <path
       id="rect3-8-1-1"
       style="fill:#ffeeaa;stroke-width:0.264583"
       d="m 187.23971,95.356362 5.0762,-2.15883 -30.55311,46.436618 -7.58494,-3.86905 z"
       sodipodi:nodetypes="ccccc" />
    <path
       id="rect3-8-1-2-6"
       style="fill:#ffeeaa;stroke-width:0.264583"
       d="m 129.49863,80.320504 4.28245,-1.100497 15.74898,57.284543 -6.52661,9.09553 z"
       sodipodi:nodetypes="ccccc" />
    <path
       id="rect3-8-5"
       style="fill:#ffeeaa;stroke-width:0.264583"
       d="m 41.068641,154.70138 0.804311,-4.41281 32.440876,10.597 2.0099,6.45038 z"
       sodipodi:nodetypes="ccccc" />
  </g>
</svg>
